<?xml version="1.0" standalone="no"?>
<!DOCTYPE svg PUBLIC "-//W3C//DTD SVG 20010904//EN"
 "http://www.w3.org/TR/2001/REC-SVG-20010904/DTD/svg10.dtd">
<svg version="1.0" xmlns="http://www.w3.org/2000/svg"
 width="364.000000pt" height="154.000000pt" viewBox="0 0 364.000000 154.000000"
 preserveAspectRatio="xMidYMid meet">

<g transform="translate(0.000000,154.000000) scale(0.100000,-0.100000)"
fill="#000000" stroke="none">
<path d="M1744 1508 c-35 -17 -44 -52 -44 -178 l0 -120 -229 0 -228 0 -39 -26
c-75 -50 -104 -85 -104 -124 0 -44 10 -58 80 -104 l55 -36 232 0 233 0 0 -45
0 -45 -223 0 -223 0 -45 -28 c-76 -49 -109 -88 -109 -131 0 -43 23 -71 98
-121 l45 -30 229 0 228 0 0 -225 0 -226 25 -24 c23 -24 31 -25 134 -25 165 0
151 -48 151 511 l0 459 209 0 209 0 62 42 c107 71 113 130 21 205 -87 71 -95
73 -311 73 l-190 0 0 78 c-1 80 -8 100 -47 120 -27 15 -190 15 -219 0z m194
-741 l2 -678 -82 3 -83 3 -3 669 c-2 529 0 671 10 678 7 4 45 7 83 6 l70 -3 3
-678z m513 422 c27 -22 49 -45 49 -49 0 -5 -19 -22 -42 -39 l-42 -31 -203 0
-203 0 0 80 0 80 196 0 196 0 49 -41z m-773 -121 l3 -68 -213 -2 -213 -3 -42
28 c-24 15 -43 32 -43 36 0 5 24 25 52 45 l53 36 200 -2 200 -3 3 -67z m2
-398 l0 -80 -206 0 -206 0 -49 36 c-27 20 -49 39 -49 44 0 4 21 24 47 44 l46
36 209 0 208 0 0 -80z"/>
<path d="M411 1439 c-64 -12 -162 -61 -210 -104 -22 -21 -55 -67 -73 -103 -31
-63 -33 -73 -33 -172 1 -94 3 -110 27 -155 55 -104 122 -148 338 -220 143 -48
217 -88 254 -138 17 -23 21 -43 21 -100 0 -61 -4 -79 -28 -120 -37 -63 -93
-99 -176 -112 -120 -20 -228 9 -334 90 -71 54 -95 48 -147 -38 l-22 -38 23
-25 c46 -49 142 -104 225 -130 74 -23 96 -26 206 -23 117 4 127 6 198 40 156
74 240 212 240 394 0 70 -22 137 -62 189 -58 77 -130 115 -366 197 -161 55
-222 112 -222 206 0 129 93 206 249 205 85 0 141 -17 213 -63 69 -44 95 -38
132 30 l29 55 -34 29 c-107 91 -297 136 -448 106z"/>
<path d="M2897 1383 c-11 -17 -527 -1314 -527 -1323 0 -6 33 -10 79 -10 60 0
84 4 100 18 11 9 43 75 70 147 27 72 57 147 65 168 l16 37 294 0 293 0 63
-163 c34 -89 72 -172 83 -184 18 -20 30 -23 105 -23 76 0 83 2 77 18 -3 9
-123 311 -267 670 l-260 652 -93 0 c-52 0 -96 -3 -98 -7z m256 -616 c42 -109
77 -203 77 -208 0 -5 -100 -9 -241 -9 -132 0 -239 4 -237 9 37 96 232 610 235
621 2 8 24 -37 47 -100 23 -63 77 -204 119 -313z"/>
</g>
</svg>
